<svg class="svg-icon" style="width: 1.2041015625em; height: 1em;vertical-align: middle;fill: currentColor;overflow: hidden;" viewBox="0 0 1233 1024" version="1.1" xmlns="http://www.w3.org/2000/svg"><path d="M 1156.55 219.744 L 666.789 10.1811 a 127.623 127.623 0 0 0 -99.8836 0 L 77.1077 219.744 A 125.275 125.275 0 0 0 0.004521 336.45 a 128.657 128.657 0 0 0 8.76172 47.0504 v 277.799 a 26.2852 26.2852 0 0 0 52.5703 0 V 445.288 a 134.931 134.931 0 0 0 15.7711 8.00821 l 489.763 209.563 a 127.676 127.676 0 0 0 99.8836 0 L 1156.55 453.296 a 127.01 127.01 0 0 0 0 -233.552 Z m -27.5819 169.101 L 639.225 598.408 a 57.2666 57.2666 0 0 1 -44.7899 0 L 104.637 388.845 a 56.8986 56.8986 0 0 1 0 -104.65 L 594.435 74.6323 a 57.1089 57.1089 0 0 1 44.7899 0 l 489.798 209.563 a 56.8986 56.8986 0 0 1 0 104.65 Z" fill="#231815" /><path d="M 1042.81 554.179 a 35.0469 35.0469 0 0 0 -35.0469 35.0469 V 841.125 a 43.9663 43.9663 0 0 1 -27.3366 40.7245 c -234.464 96.7469 -492.724 96.7469 -727.223 0 A 43.9663 43.9663 0 0 1 225.899 841.125 V 589.226 a 35.0469 35.0469 0 0 0 -70.0938 0 V 841.125 a 113.902 113.902 0 0 0 70.6896 105.509 a 1023.58 1023.58 0 0 0 780.669 0 A 113.902 113.902 0 0 0 1077.85 841.125 V 589.226 a 35.0469 35.0469 0 0 0 -35.0469 -35.0469 Z" fill="#231815" /></svg>